<?xml version="1.0" encoding="UTF-8" standalone="no"?>
<svg
   stroke="currentColor"
   fill="none"
   stroke-width="0"
   viewBox="0 0 24 24"
   height="200px"
   width="200px"
   version="1.1"
   id="svg3"
   sodipodi:docname="info.svg"
   inkscape:version="1.3.2 (091e20e, 2023-11-25)"
   xmlns:inkscape="http://www.inkscape.org/namespaces/inkscape"
   xmlns:sodipodi="http://sodipodi.sourceforge.net/DTD/sodipodi-0.dtd"
   xmlns="http://www.w3.org/2000/svg"
   xmlns:svg="http://www.w3.org/2000/svg">
  <defs
     id="defs3" />
  <sodipodi:namedview
     id="namedview3"
     pagecolor="#ffffff"
     bordercolor="#000000"
     borderopacity="0.25"
     inkscape:showpageshadow="2"
     inkscape:pageopacity="0.0"
     inkscape:pagecheckerboard="0"
     inkscape:deskcolor="#d1d1d1"
     inkscape:zoom="2.6751171"
     inkscape:cx="134.38664"
     inkscape:cy="117.56495"
     inkscape:window-width="2560"
     inkscape:window-height="1412"
     inkscape:window-x="0"
     inkscape:window-y="28"
     inkscape:window-maximized="0"
     inkscape:current-layer="svg3" />
  <path
     d="M11 10.9794C11 10.4271 11.4477 9.97937 12 9.97937C12.5523 9.97937 13 10.4271 13 10.9794V16.9794C13 17.5317 12.5523 17.9794 12 17.9794C11.4477 17.9794 11 17.5317 11 16.9794V10.9794Z"
     fill="currentColor"
     id="path1"
     style="fill:#000000;fill-opacity:0" />
  <path
     d="M12 6.05115C11.4477 6.05115 11 6.49886 11 7.05115C11 7.60343 11.4477 8.05115 12 8.05115C12.5523 8.05115 13 7.60343 13 7.05115C13 6.49886 12.5523 6.05115 12 6.05115Z"
     fill="currentColor"
     id="path2"
     style="fill:#000000;fill-opacity:0" />
  <path
     style="display:inline;fill:#cbb6e5;fill-opacity:1;fill-rule:evenodd;stroke:#cbb6e5;stroke-width:2.09661;stroke-opacity:0.01"
     d="M 93.471832,166.24842 C 85.751768,165.13659 81.300202,164.07241 76.343673,162.15378 67.805845,158.84886 60.239094,154.02086 53.719286,147.7182 42.87804,137.23802 36.097058,123.64422 33.923384,108.03347 33.469819,104.77608 33.47961,95.163733 33.939911,91.807645 36.077584,76.221736 43.108833,62.334007 54.168419,51.853436 64.899628,41.68405 78.700639,35.321121 93.29692,33.813316 c 4.531545,-0.468111 13.42541,-0.186966 17.64887,0.557901 6.88038,1.213453 13.39155,3.425905 19.3698,6.490553 16.30041,8.356135 28.63888,23.047892 33.69708,41.099436 8.60251,30.700334 -5.55313,62.879464 -34.02854,77.354984 -6.08341,3.09251 -11.90052,5.02882 -18.97108,6.31479 -2.46007,0.44744 -4.55262,0.5851 -9.91369,0.65221 -3.737491,0.0468 -7.169877,0.0311 -7.627528,-0.0348 z M 103.7938,149.05149 c 1.80167,-0.86283 3.49999,-2.75758 4.15536,-4.63598 0.46873,-1.34346 0.50035,-3.10848 0.50035,-27.92243 0,-29.810046 0.11864,-28.084895 -2.10506,-30.611153 -1.66149,-1.887551 -3.70165,-2.778221 -6.32312,-2.760467 -2.592433,0.01755 -4.238916,0.67439 -5.926721,2.364366 -1.471005,1.472897 -2.124673,2.817507 -2.444552,5.02851 -0.322605,2.229833 -0.322605,49.727664 0,51.957494 0.136017,0.94015 0.474149,2.18829 0.751406,2.77365 0.598588,1.26378 2.459765,3.19382 3.696655,3.83345 2.178532,1.12656 5.309302,1.1154 7.695682,-0.0274 z m 0.3136,-82.903447 c 5.92511,-3.22485 5.66085,-12.034314 -0.45069,-15.024413 -2.25624,-1.103876 -5.078432,-1.103364 -7.336348,0.0013 -2.850907,1.394819 -4.42183,3.815 -4.602755,7.09105 -0.131479,2.380755 0.169985,3.588474 1.334622,5.346757 1.652868,2.495376 4.016962,3.613024 7.357151,3.478164 1.82149,-0.07354 2.48853,-0.2346 3.69802,-0.892889 z"
     id="path10"
     transform="scale(0.12)"
     sodipodi:nodetypes="ssssssssssssssssssssssssssscscssscc" />
</svg>
